<svg version="1.1" id="Layer_1" xmlns="http://www.w3.org/2000/svg" xmlns:xlink="http://www.w3.org/1999/xlink" x="0px" y="0px"
	 width="100%" viewBox="0 0 215 212" enable-background="new 0 0 215 212" xml:space="preserve">
<path fill="#FEF4E5" opacity="1.000000" stroke="none" 
	d="
M122.000000,213.000000 
	C81.333336,213.000000 41.166672,213.000000 1.000005,213.000000 
	C1.000004,142.333344 1.000004,71.666679 1.000002,1.000015 
	C72.666656,1.000010 144.333313,1.000010 215.999969,1.000005 
	C215.999985,71.666649 215.999985,142.333298 216.000000,212.999969 
	C184.833328,213.000000 153.666672,213.000000 122.000000,213.000000 
M117.279510,9.981909 
	C97.672295,8.497178 79.147247,12.131861 62.019188,21.958363 
	C24.360332,43.563541 6.489956,87.108429 18.093229,129.665298 
	C31.613558,179.253281 84.057526,211.083603 137.706940,194.049194 
	C183.713715,179.441437 210.748413,135.655579 201.666580,85.178352 
	C194.420288,44.903210 159.303970,13.900652 117.279510,9.981909 
z"/>
<path fill="#029C7E" opacity="1.000000" stroke="none" 
	d="
M117.751389,9.990711 
	C159.303970,13.900652 194.420288,44.903210 201.666580,85.178352 
	C210.748413,135.655579 183.713715,179.441437 137.706940,194.049194 
	C84.057526,211.083603 31.613558,179.253281 18.093229,129.665298 
	C6.489956,87.108429 24.360332,43.563541 62.019188,21.958363 
	C79.147247,12.131861 97.672295,8.497178 117.751389,9.990711 
M103.277512,149.104721 
	C104.203941,146.095520 105.362160,143.134995 106.006660,140.066574 
	C107.205940,134.356949 110.274361,131.520828 116.265007,130.344254 
	C127.677307,128.102844 137.332947,122.640930 141.497681,110.902725 
	C144.976608,101.097458 143.793015,95.264931 132.555511,96.844589 
	C131.912827,96.934929 131.221359,96.813164 130.570938,96.691803 
	C126.380455,95.909904 121.949097,95.917839 119.181892,91.631844 
	C110.052574,77.491898 99.054893,74.362663 83.722450,81.565155 
	C84.798332,83.441528 85.941635,85.258667 86.915024,87.162659 
	C92.068962,97.243858 97.224983,107.324005 97.697662,119.002640 
	C97.908195,124.204636 96.059860,127.022003 91.019333,127.834282 
	C81.932762,129.298599 73.082306,128.894196 65.167183,123.323105 
	C63.010994,121.805458 60.771515,120.406143 58.360580,118.814064 
	C56.805271,124.264671 55.328609,129.439651 53.803936,134.782898 
	C57.593422,136.717499 61.214920,138.767685 64.996643,140.459793 
	C77.030571,145.844315 89.346497,150.195602 103.277512,149.104721 
M122.591988,61.954998 
	C117.713417,60.649227 112.824387,58.225246 107.958450,58.270729 
	C97.862686,58.365097 88.247589,61.163456 80.500420,68.198723 
	C78.887589,69.663345 78.022835,71.951736 76.813324,73.860497 
	C79.210350,74.308014 81.596405,74.990707 84.009048,75.103165 
	C85.202812,75.158806 86.422974,74.100571 87.670425,73.656540 
	C91.174400,72.409294 94.698761,71.219315 99.087196,69.706001 
	C101.992859,64.159554 104.407356,63.267941 109.756294,66.719437 
	C109.227188,66.849487 108.746765,67.078835 108.273178,67.065521 
	C105.648857,66.991707 102.618065,66.216660 101.761719,69.867043 
	C100.898735,73.545784 103.880646,74.737923 106.365738,76.041840 
	C110.339508,78.126862 114.707680,79.626358 118.319107,82.200996 
	C125.715820,87.474236 133.209427,90.809761 142.280655,86.844498 
	C142.719879,86.652496 143.295013,86.552750 143.752853,86.654053 
	C154.194763,88.964317 159.122986,83.265381 161.877579,74.292488 
	C162.264008,73.033653 163.161530,71.927200 163.515976,70.664192 
	C163.968536,69.051506 164.109589,67.351402 164.453568,65.274368 
	C156.811310,66.490318 149.874069,68.839607 143.162811,68.312340 
	C136.423752,67.782890 129.909882,64.387299 122.591988,61.954998 
M93.112320,108.455238 
	C89.950142,97.879303 84.526520,88.479935 78.551918,79.417061 
	C66.830307,84.220703 58.003468,99.028076 59.102615,111.599419 
	C59.182220,112.509895 59.636078,113.529083 60.230606,114.231323 
	C66.479454,121.612457 74.325821,125.881195 84.145645,125.601433 
	C95.152878,125.287849 96.425934,123.491371 94.152397,112.630959 
	C93.914513,111.494644 93.610153,110.372246 93.112320,108.455238 
z"/>
<path fill="#FBF3E4" opacity="1.000000" stroke="none" 
	d="
M103.046623,149.470764 
	C89.346497,150.195602 77.030571,145.844315 64.996643,140.459793 
	C61.214920,138.767685 57.593422,136.717499 53.803936,134.782898 
	C55.328609,129.439651 56.805271,124.264671 58.360580,118.814064 
	C60.771515,120.406143 63.010994,121.805458 65.167183,123.323105 
	C73.082306,128.894196 81.932762,129.298599 91.019333,127.834282 
	C96.059860,127.022003 97.908195,124.204636 97.697662,119.002640 
	C97.224983,107.324005 92.068962,97.243858 86.915024,87.162659 
	C85.941635,85.258667 84.798332,83.441528 83.722450,81.565155 
	C99.054893,74.362663 110.052574,77.491898 119.181892,91.631844 
	C121.949097,95.917839 126.380455,95.909904 130.570938,96.691803 
	C131.221359,96.813164 131.912827,96.934929 132.555511,96.844589 
	C143.793015,95.264931 144.976608,101.097458 141.497681,110.902725 
	C137.332947,122.640930 127.677307,128.102844 116.265007,130.344254 
	C110.274361,131.520828 107.205940,134.356949 106.006660,140.066574 
	C105.362160,143.134995 104.203941,146.095520 103.046623,149.470764 
M107.790649,102.590416 
	C110.759163,102.516258 112.750023,101.057671 112.203323,98.053993 
	C111.946899,96.645149 110.206055,94.732513 108.891861,94.511520 
	C107.620461,94.297722 104.800392,96.009872 104.830292,96.793289 
	C104.901871,98.669235 106.248787,100.496506 107.790649,102.590416 
z"/>
<path fill="#F8F1E3" opacity="1.000000" stroke="none" 
	d="
M122.944656,62.101387 
	C129.909882,64.387299 136.423752,67.782890 143.162811,68.312340 
	C149.874069,68.839607 156.811310,66.490318 164.453568,65.274368 
	C164.109589,67.351402 163.968536,69.051506 163.515976,70.664192 
	C163.161530,71.927200 162.264008,73.033653 161.877579,74.292488 
	C159.122986,83.265381 154.194763,88.964317 143.752853,86.654053 
	C143.295013,86.552750 142.719879,86.652496 142.280655,86.844498 
	C133.209427,90.809761 125.715820,87.474236 118.319107,82.200996 
	C114.707680,79.626358 110.339508,78.126862 106.365738,76.041840 
	C103.880646,74.737923 100.898735,73.545784 101.761719,69.867043 
	C102.618065,66.216660 105.648857,66.991707 108.273178,67.065521 
	C108.746765,67.078835 109.227188,66.849487 109.756294,66.719437 
	C104.407356,63.267941 101.992859,64.159554 99.087196,69.706001 
	C94.698761,71.219315 91.174400,72.409294 87.670425,73.656540 
	C86.422974,74.100571 85.202812,75.158806 84.009048,75.103165 
	C81.596405,74.990707 79.210350,74.308014 76.813324,73.860497 
	C78.022835,71.951736 78.887589,69.663345 80.500420,68.198723 
	C88.247589,61.163456 97.862686,58.365097 107.958450,58.270729 
	C112.824387,58.225246 117.713417,60.649227 122.944656,62.101387 
z"/>
<path fill="#FBF3E4" opacity="1.000000" stroke="none" 
	d="
M93.224472,108.849319 
	C93.610153,110.372246 93.914513,111.494644 94.152397,112.630959 
	C96.425934,123.491371 95.152878,125.287849 84.145645,125.601433 
	C74.325821,125.881195 66.479454,121.612457 60.230606,114.231323 
	C59.636078,113.529083 59.182220,112.509895 59.102615,111.599419 
	C58.003468,99.028076 66.830307,84.220703 78.551918,79.417061 
	C84.526520,88.479935 89.950142,97.879303 93.224472,108.849319 
z"/>
<path fill="#11A184" opacity="1.000000" stroke="none" 
	d="
M107.435776,102.466919 
	C106.248787,100.496506 104.901871,98.669235 104.830292,96.793289 
	C104.800392,96.009872 107.620461,94.297722 108.891861,94.511520 
	C110.206055,94.732513 111.946899,96.645149 112.203323,98.053993 
	C112.750023,101.057671 110.759163,102.516258 107.435776,102.466919 
z"/>
</svg>